<svg width="40" height="40" viewBox="0 0 40 40" fill="none" xmlns="http://www.w3.org/2000/svg">
<rect width="40" height="40" rx="8" fill="#ED1D26"/>
<path fill-rule="evenodd" clip-rule="evenodd" d="M25.1591 23.1774H31.1111V17.2271H25.1591V23.1774ZM17.223 31.1111H23.1751V9.29343H17.223V31.1111V31.1111ZM25.1591 15.2372H31.1111V9.28691H25.1591V15.2372ZM12.263 8.88892C11.3681 8.88892 10.5099 9.2443 9.87714 9.87688C9.24437 10.5095 8.88889 11.3674 8.88889 12.262C8.88889 13.1567 9.24437 14.0146 9.87714 14.6472C10.5099 15.2798 11.3681 15.6352 12.263 15.6352C13.1579 15.6352 14.0161 15.2798 14.6489 14.6472C15.2816 14.0146 15.6371 13.1567 15.6371 12.262C15.6371 11.3674 15.2816 10.5095 14.6489 9.87688C14.0161 9.2443 13.1579 8.88892 12.263 8.88892V8.88892ZM9.30005 31.1111H15.2521V17.2206H9.30005V31.0981V31.1111Z" fill="white"/>
</svg>
