<svg width="40" height="40" viewBox="0 0 40 40" fill="none" xmlns="http://www.w3.org/2000/svg">
<rect width="40" height="40" rx="8" fill="#ED1D26"/>
<path d="M30.2428 20.5465C30.1628 20.4818 30.0825 20.4128 30.002 20.3399C29.5435 19.9261 29.0813 19.3862 28.642 18.7582C28.1999 18.127 27.7836 17.4092 27.4209 16.6456C27.0576 15.8812 26.7496 15.0742 26.5247 14.2662C26.3004 13.4624 26.1806 12.7377 26.1549 12.1173C26.1298 11.5019 26.1976 10.9906 26.3469 10.6063C26.4947 10.2269 26.7228 9.97009 27.021 9.85948C27.3148 9.74887 27.6769 9.7795 28.0976 9.96898C28.2251 10.0264 28.3537 10.0966 28.4839 10.1792C28.613 10.2608 28.7437 10.3544 28.8745 10.459C29.0053 10.5636 29.136 10.678 29.2673 10.8027C29.3449 10.8765 29.4228 10.9538 29.5004 11.0346L29.5711 11.1093C29.6 11.14 29.6287 11.1712 29.6573 11.203L29.9933 11.5862L30.2985 11.9629L30.5672 12.3209L30.8172 12.6774L31.0469 13.03L31.2543 13.371L31.4463 13.7082C31.4463 13.7082 30.9216 13.0233 30.4944 12.6861C30.4588 12.6578 30.4238 12.6305 30.3894 12.604L30.3075 12.5418C30.2373 12.4895 30.1696 12.4414 30.1033 12.3985C30.0135 12.3403 29.9265 12.2916 29.8406 12.2548C29.7223 12.204 29.6142 12.1797 29.5172 12.1802C29.4455 12.1805 29.3798 12.1943 29.3203 12.2208C29.3012 12.2294 29.2827 12.2392 29.2649 12.2503C29.246 12.2622 29.2278 12.2754 29.2104 12.2902C29.1844 12.3122 29.1601 12.3374 29.1375 12.3657C29.0851 12.4314 29.0421 12.5136 29.0091 12.6112C28.9429 12.8065 28.9172 13.0617 28.9357 13.3667C28.9549 13.6733 29.0183 14.028 29.1311 14.4206C29.2438 14.813 29.3948 15.2051 29.5709 15.5763C29.7471 15.948 29.9484 16.2973 30.1612 16.6078C30.3735 16.9165 30.5973 17.1853 30.8188 17.394C31.0398 17.602 31.2592 17.7515 31.4632 17.8237C31.5195 17.8435 31.5731 17.857 31.6241 17.8645C31.667 17.8708 31.7079 17.8727 31.747 17.8705C31.829 17.8659 31.9026 17.8432 31.9672 17.804C32.0984 17.7241 32.1936 17.5752 32.2488 17.3703C32.3041 17.1667 32.2915 16.9149 32.2346 16.6165C32.1794 16.3252 32.1543 15.9846 32.0432 15.6074C31.971 15.3638 31.9168 15.2248 31.8101 14.9916C32.1794 15.7055 32.3544 16.1298 32.5952 16.8963C32.7511 17.3922 32.8414 17.7323 32.9229 18.1884C33.0175 18.7183 33.011 19.1656 32.9776 19.568C32.9437 19.9737 32.8588 20.3169 32.7243 20.5841C32.5886 20.8541 32.4032 21.0467 32.1696 21.148C31.9338 21.2516 31.6493 21.2603 31.3194 21.1611C31.0969 21.094 30.8651 20.9812 30.6283 20.8279C30.501 20.7455 30.3723 20.6514 30.2428 20.5465Z" fill="white"/>
<path d="M13.2791 30.9962C13.1301 30.934 12.9551 30.8559 12.8226 30.7813C12.7235 30.7253 12.6085 30.649 12.5038 30.5757C12.3314 30.455 12.1868 30.3429 12.1868 30.3429C12.1868 30.3429 12.0593 30.2453 11.979 30.1829C11.7514 30.0044 11.41 29.7094 11.41 29.7094L10.98 29.3125C10.5565 28.9045 10.1479 28.437 9.76378 27.9234C9.37816 27.4077 9.01817 26.8455 8.69261 26.2497C8.36713 25.6531 8.07768 25.0234 7.83369 24.3742C7.59026 23.7259 7.39276 23.0591 7.25105 22.3867C7.2232 22.2542 7.19749 22.1234 7.17504 21.9936L7.16282 21.9235L7.14727 21.8305L7.12719 21.7037L7.11323 21.6093C7.09458 21.4828 7.07927 21.3581 7.06562 21.2343C7.05245 21.1112 7.04158 20.9901 7.03277 20.8696L7.00159 20.1355L7 19.974L7.02238 19.1889L7.09403 18.3907L7.11005 18.2677L7.12362 18.1673C7.17012 17.8355 7.20186 17.6488 7.2697 17.3208C7.29802 17.1837 7.33778 17.016 7.37475 16.8659C7.39403 16.7875 7.4126 16.714 7.42847 16.6521C7.45616 16.544 7.47536 16.4717 7.47536 16.4717L7.61874 16.0441L7.67563 15.9275C7.55741 16.2292 7.4464 16.6229 7.38673 17.0131C7.32714 17.4068 7.29318 17.8262 7.28715 18.2703C7.28327 18.5605 7.2912 18.8617 7.31135 19.172C7.32215 19.3384 7.33651 19.5074 7.35444 19.6788C7.40641 20.1727 7.48853 20.6879 7.60176 21.2207C7.86217 22.4421 8.26478 23.652 8.77632 24.8017C9.28786 25.952 9.9039 27.0338 10.5888 28.0012C11.2705 28.9637 12.0151 29.8068 12.7881 30.4906C13.0551 30.7266 13.2979 30.921 13.5967 31.1192C13.6071 31.1284 13.5857 31.1174 13.5857 31.1174C13.5857 31.1174 13.4494 31.0673 13.2791 30.9962Z" fill="white"/>
<path d="M32.036 24.9578L32.3588 24.1004C32.3588 24.1004 32.4133 23.9435 32.4743 23.7572C32.5144 23.6345 32.5573 23.4993 32.5892 23.3876C32.6123 23.3076 32.6387 23.2084 32.6617 23.1194C32.6948 22.9915 32.721 22.8845 32.721 22.8845C32.7344 22.8322 32.7447 22.7866 32.7542 22.7365C32.7632 22.6885 32.7716 22.6363 32.7812 22.5697L32.6969 22.8845C32.6368 23.0964 32.5634 23.289 32.4759 23.4615C32.3457 23.7178 32.1843 23.9279 31.9939 24.0868C31.9115 24.1555 31.8235 24.2145 31.73 24.2634C31.699 24.2796 31.6675 24.2947 31.6353 24.3086C31.5378 24.3507 31.4349 24.3824 31.3265 24.4032C31.0721 24.4524 30.7876 24.4414 30.4741 24.3632C29.8685 24.2126 29.2136 23.8267 28.5489 23.2546C27.8755 22.6754 27.1955 21.9067 26.5504 21.0032C25.9005 20.0939 25.2894 19.0537 24.761 17.9418C24.232 16.8298 23.7888 15.6544 23.4726 14.4783C23.1591 13.3112 23.0027 12.2616 22.9868 11.3675C22.9715 10.4846 23.0929 9.75681 23.3336 9.21535C23.5705 8.68279 23.9223 8.33128 24.372 8.18672C24.8075 8.04707 25.3343 8.10245 25.9389 8.37556C25.9389 8.37556 25.9865 8.39809 25.964 8.38714L26.0865 8.43523L25.4809 8.1472L24.7391 7.83252L23.861 7.52704L22.9534 7.28281L22.6799 7.22251C22.0376 7.08794 21.4785 7.17109 21.0184 7.45134C20.549 7.73778 20.1836 8.22782 19.939 8.90067C19.6906 9.58494 19.5692 10.456 19.5927 11.4842C19.6167 12.5282 19.7907 13.7284 20.131 15.0511C20.5117 16.5304 21.0611 18.008 21.7263 19.4046C22.3915 20.8001 23.1657 22.1015 23.9934 23.2327C24.814 24.3534 25.6806 25.2989 26.5401 26.0007C27.3853 26.6917 28.2185 27.1428 28.9894 27.2966C29.2815 27.3552 29.5539 27.369 29.8062 27.3411C30.0556 27.3131 30.2854 27.2446 30.4949 27.139C30.7028 27.0345 30.8899 26.8926 31.0573 26.718C31.2231 26.5444 31.3686 26.338 31.4933 26.1015L31.6482 25.8037L32.036 24.9578Z" fill="white"/>
<path d="M28.5413 29.7928L27.7414 30.4306L26.8825 31.0098L26.4444 31.2688C26.3081 31.3459 26.1647 31.4112 26.0154 31.4648C25.8655 31.5184 25.7091 31.5606 25.546 31.5897C25.517 31.5949 25.4878 31.5998 25.4584 31.6043L25.3983 31.6129C25.3223 31.6229 25.2448 31.63 25.1661 31.6344C25.1228 31.637 25.0791 31.6386 25.035 31.6394C24.8578 31.6433 24.674 31.6324 24.4836 31.6083C23.5005 31.4829 22.4468 30.9951 21.3833 30.211C20.2984 29.4105 19.2125 28.3068 18.1933 26.9803C17.1626 25.6385 16.2106 24.0814 15.4069 22.3996C14.6033 20.7176 13.9572 18.929 13.5365 17.135C13.2367 15.8559 13.0731 14.6691 13.0343 13.5987C12.9959 12.5404 13.0786 11.6003 13.269 10.795C13.4566 10.0023 13.7471 9.3431 14.1279 8.83291C14.5021 8.33128 14.9622 7.97391 15.4956 7.77285L16.0777 7.57036L17.0734 7.29329L18.0767 7.09952L18.3596 7.05953L18.9247 7.00256L18.9455 7.00002C18.9486 6.99987 18.9479 7.0005 18.9479 7.0005C18.9443 7.00177 18.9247 7.00542 18.9247 7.00542C18.3858 7.07651 17.9148 7.30154 17.522 7.67494C17.0821 8.09372 16.7424 8.69373 16.5192 9.4564C16.2916 10.2322 16.1855 11.1739 16.2172 12.2579C16.25 13.3567 16.4246 14.5963 16.7566 15.948C17.1724 17.6396 17.7911 19.3276 18.5505 20.9191C19.3098 22.5102 20.201 23.9884 21.1606 25.2666C22.1092 26.5319 23.1159 27.5902 24.1171 28.366C25.0991 29.127 26.0685 29.611 26.9684 29.7539C27.2212 29.7938 27.4613 29.8058 27.6884 29.7911C27.8036 29.7844 27.9156 29.7705 28.0242 29.7498C28.1281 29.73 28.229 29.7041 28.3268 29.6729C28.4215 29.6424 28.5134 29.6067 28.6023 29.5656C28.7001 29.5205 28.7944 29.4691 28.8849 29.4112C28.9446 29.3731 29.0018 29.3321 29.0577 29.2887C29.1014 29.2547 29.1443 29.2192 29.1869 29.1823L28.6338 29.7122L28.5413 29.7928Z" fill="white"/>
<path d="M18.9795 32.9081C19.7837 33.0384 20.2569 33.0138 21.0671 32.9354C21.3883 32.9048 21.8861 32.8216 21.8861 32.8216C21.8861 32.8216 22.1126 32.7637 22.2514 32.7242C22.3315 32.7015 22.3823 32.6848 22.3434 32.6891C22.2483 32.7005 22.135 32.7159 22.0305 32.7121C21.926 32.7088 21.8194 32.7016 21.7111 32.6902C20.7061 32.5818 19.6354 32.1148 18.5615 31.3537C17.4652 30.5774 16.3743 29.5016 15.3562 28.2031C14.326 26.8901 13.3806 25.3622 12.5895 23.7081C11.7979 22.0536 11.1699 20.2914 10.7716 18.5185C10.5232 17.4148 10.3805 16.3774 10.3345 15.4248C10.2891 14.4809 10.3383 13.6219 10.4729 12.8597C10.6058 12.108 10.8214 11.4532 11.1097 10.9046C11.357 10.4366 11.6568 10.0643 12.0036 9.75982C12.0036 9.75982 11.8828 9.85075 11.7389 9.96342C11.6352 10.0447 11.5195 10.1373 11.4286 10.2154C11.125 10.476 10.6885 10.9233 10.6885 10.9233L10.0959 11.5803L9.48377 12.3676C9.21732 12.7426 8.99579 13.186 8.82401 13.6947C8.65 14.2071 8.52694 14.7853 8.46021 15.4197C8.39236 16.0614 8.38253 16.7606 8.4345 17.5101C8.4875 18.265 8.6035 19.071 8.78735 19.9173C9.14242 21.5506 9.71355 23.1694 10.44 24.6865C11.1661 26.2024 12.0397 27.6013 12.996 28.8024C13.943 29.9917 14.9628 30.9765 15.9935 31.6871C17.0051 32.3836 17.737 32.7077 18.9795 32.9081Z" fill="white"/>
</svg>
