<svg width="40" height="40" viewBox="0 0 40 40" fill="none" xmlns="http://www.w3.org/2000/svg">
<rect width="40" height="40" rx="8" fill="url(#paint0_linear_175_3381)"/>
<path fill-rule="evenodd" clip-rule="evenodd" d="M8.34024 19.5844C14.9007 16.4582 19.268 14.3809 21.4611 13.3731C27.7028 10.5143 29.0149 10.0207 29.8584 10.0001C30.0458 10.0001 30.4582 10.0413 30.7393 10.2881C30.9643 10.4937 31.0205 10.7611 31.058 10.9668C31.0955 11.1724 31.133 11.6044 31.0955 11.9334C30.7581 15.8412 29.2961 25.3226 28.5463 29.6828C28.2276 31.5339 27.6091 32.1509 27.0093 32.2126C25.6972 32.336 24.7038 31.2665 23.4479 30.3615C21.4611 28.9424 20.3552 28.058 18.4245 26.6595C16.194 25.0552 17.6373 24.1708 18.9119 22.7312C19.2493 22.3609 25.0037 16.6022 25.1161 16.088C25.1349 16.0263 25.1349 15.7795 25.0037 15.6561C24.8725 15.5327 24.685 15.5738 24.5351 15.6149C24.3289 15.6561 21.1799 17.9596 15.0506 22.5049C14.1509 23.1836 13.3449 23.5127 12.6139 23.4921C11.8079 23.4716 10.2709 22.9985 9.10875 22.5872C7.70295 22.0936 6.57831 21.8262 6.67203 20.9624C6.72826 20.5099 7.29058 20.0574 8.34024 19.5844Z" fill="white"/>
<defs>
<linearGradient id="paint0_linear_175_3381" x1="2000" y1="0" x2="2000" y2="3970.33" gradientUnits="userSpaceOnUse">
<stop stop-color="#2AABEE"/>
<stop offset="1" stop-color="#229ED9"/>
</linearGradient>
</defs>
</svg>
