<svg width="14" height="24" viewBox="0 0 14 24" fill="none" xmlns="http://www.w3.org/2000/svg">
<path d="M8.66441e-06 1.41176C8.6935e-06 0.746252 8.66632e-06 0.413496 0.205033 0.206748C0.410059 -5.94035e-07 0.740041 -5.79611e-07 1.40001 -5.50763e-07L12.6 -6.11961e-08C13.26 -3.2348e-08 13.5899 -1.7924e-08 13.795 0.206748C14 0.413496 14 0.746252 14 1.41176C14 2.07728 14 2.41003 13.795 2.61678C13.5899 2.82353 13.26 2.82353 12.6 2.82353L9.1 2.82353C8.77002 2.82353 8.60503 2.82353 8.50252 2.9269C8.4 3.03028 8.4 3.19666 8.4 3.52941L8.4 4.02531C8.4 4.42113 8.4 4.61904 8.49301 4.78232C8.58601 4.9456 8.75553 5.04532 9.09458 5.24476L13.3054 7.72172C13.6445 7.92116 13.814 8.02088 13.907 8.18416C14 8.34744 14 8.54535 14 8.94117L14 10.1701C14 10.716 14 10.9889 13.8243 11.0907C13.6486 11.1924 13.4149 11.0549 12.9473 10.7799L7.70542 7.69642C7.36131 7.49399 7.18925 7.39278 7.00001 7.39278C6.81076 7.39278 6.6387 7.49399 6.29459 7.69642L1.05271 10.7799C0.585143 11.0549 0.351359 11.1924 0.17568 11.0907C1.52834e-06 10.9889 2.46848e-07 10.716 2.70708e-07 10.1701L3.24428e-07 8.94118C3.4173e-07 8.54536 1.66466e-06 8.34745 0.0930024 8.18417C0.186003 8.02089 0.355529 7.92117 0.694583 7.72173L4.90543 5.24476C5.24448 5.04532 5.414 4.9456 5.507 4.78232C5.60001 4.61904 5.60001 4.42113 5.60001 4.02531L5.60001 3.52941C5.60001 3.19666 5.60001 3.03028 5.49749 2.9269C5.39498 2.82353 5.22999 2.82353 4.90001 2.82353L1.40001 2.82353C0.740042 2.82353 0.410059 2.82353 0.205033 2.61678C8.57905e-06 2.41003 8.63532e-06 2.07728 8.66441e-06 1.41176Z" fill="white"/>
<path fill-rule="evenodd" clip-rule="evenodd" d="M1.40001 15.5294C0.740042 15.5294 0.410059 15.5294 0.205033 15.3227C8.02366e-06 15.1159 8.07993e-06 14.7832 8.10902e-06 14.1176C8.13811e-06 13.4521 8.11093e-06 13.1194 0.205033 12.9126C0.410059 12.7059 0.740042 12.7059 1.40001 12.7059L11.2 12.7059C12.5199 12.7059 13.1799 12.7059 13.59 13.1194C14 13.5329 14 14.1984 14 15.5294L14 18.2723C13.9998 18.9542 13.9972 19.5464 13.9572 20.04C13.912 20.5982 13.8121 21.1533 13.5422 21.6875C13.1396 22.4844 12.497 23.1323 11.7068 23.5384C11.177 23.8106 10.6265 23.9112 10.073 23.9568C9.54865 24 8.91199 24 8.174 24L7.92601 24C7.18802 24 6.55136 24 6.02697 23.9568C5.47348 23.9112 4.92298 23.8106 4.39324 23.5384C3.60296 23.1323 2.96045 22.4844 2.55778 21.6875C2.28787 21.1533 2.18802 20.5982 2.1428 20.04C2.09996 19.5112 2.09998 18.8692 2.10001 18.125L2.10001 16.2353C2.10001 15.9025 2.10001 15.7362 1.99749 15.6328C1.89498 15.5294 1.72999 15.5294 1.40001 15.5294ZM11.1665 19.8101C11.1989 19.4101 11.2 18.8845 11.2 18.0706L11.2 16.2353C11.2 15.9025 11.2 15.7362 11.0975 15.6328C10.995 15.5294 10.83 15.5294 10.5 15.5294L5.60001 15.5294C5.27002 15.5294 5.10503 15.5294 5.00252 15.6328C4.90001 15.7362 4.90001 15.9025 4.90001 16.2353L4.90001 18.0706C4.90001 18.8845 4.90109 19.4101 4.9335 19.8101C4.96458 20.1936 5.01733 20.3358 5.0526 20.4056C5.18682 20.6713 5.40099 20.8872 5.66442 21.0226C5.73364 21.0582 5.87465 21.1114 6.25497 21.1427C6.65165 21.1754 7.17283 21.1765 7.98 21.1765L8.12 21.1765C8.92718 21.1765 9.44836 21.1754 9.84503 21.1427C10.2254 21.1114 10.3664 21.0582 10.4356 21.0226C10.699 20.8872 10.9132 20.6713 11.0474 20.4056C11.0827 20.3358 11.1354 20.1936 11.1665 19.8101Z" fill="white"/>
</svg>
