<svg width="16" height="16" viewBox="0 0 16 16" fill="none" xmlns="http://www.w3.org/2000/svg">
<path d="M6.43851 7.49908C6.82203 7.49908 7.13602 7.3792 7.38046 7.13945C7.62912 6.89541 7.75345 6.58073 7.75345 6.19541C7.75345 5.81865 7.64808 5.51682 7.43736 5.28991C7.23084 5.063 6.96111 4.94954 6.62816 4.94954C6.46379 4.94954 6.31418 4.97737 6.17931 5.03303C6.04866 5.0844 5.93487 5.17003 5.83793 5.28991H5.69885C5.72414 5.18287 5.7705 5.07798 5.83793 4.97523C5.90536 4.8682 5.98966 4.76972 6.0908 4.67982C6.19195 4.59419 6.30364 4.52141 6.42586 4.46147C6.54808 4.39725 6.68084 4.35229 6.82414 4.32661C6.92529 4.3052 6.99904 4.27309 7.0454 4.23028C7.09598 4.18746 7.12126 4.12966 7.12126 4.05688C7.12126 3.89419 7.02644 3.81284 6.83678 3.81284C6.63027 3.81284 6.41111 3.87064 6.17931 3.98624C5.94751 4.09755 5.741 4.24954 5.55977 4.4422C5.37854 4.63486 5.24579 4.85535 5.16149 5.10367C5.0772 5.35199 5.03506 5.61101 5.03506 5.88073C5.03506 6.39021 5.16992 6.78838 5.43966 7.07523C5.7136 7.3578 6.04655 7.49908 6.43851 7.49908ZM9.65632 7.49266C10.0398 7.49266 10.3538 7.37278 10.5983 7.13303C10.8427 6.89327 10.9649 6.57859 10.9649 6.18899C10.9649 5.81223 10.8596 5.5104 10.6489 5.28349C10.4423 5.05657 10.1747 4.94312 9.84598 4.94312C9.67739 4.94312 9.52567 4.97095 9.3908 5.02661C9.25594 5.08226 9.14215 5.16789 9.04943 5.28349H8.91667C8.94195 5.17645 8.98831 5.07156 9.05575 4.96881C9.12318 4.86177 9.20747 4.76544 9.30862 4.67982C9.40556 4.58991 9.51513 4.51498 9.63736 4.45505C9.76379 4.39511 9.89866 4.35229 10.042 4.32661C10.1473 4.30092 10.2211 4.26667 10.2632 4.22385C10.3096 4.18104 10.3328 4.12324 10.3328 4.05046C10.3328 3.88777 10.24 3.80642 10.0546 3.80642C9.84387 3.80642 9.6205 3.86636 9.38448 3.98624C9.14847 4.10612 8.94617 4.25596 8.77759 4.43578C8.59636 4.63272 8.46149 4.85535 8.37299 5.10367C8.28448 5.34771 8.24023 5.60459 8.24023 5.87431C8.24023 6.38807 8.3772 6.78624 8.65115 7.06881C8.9251 7.35138 9.26015 7.49266 9.65632 7.49266ZM5.61034 10.0807H10.396C10.5224 10.0807 10.6257 10.0379 10.7057 9.95229C10.79 9.86239 10.8322 9.75321 10.8322 9.62477C10.8322 9.50489 10.79 9.40428 10.7057 9.32294C10.6257 9.24159 10.5224 9.20092 10.396 9.20092H5.61034C5.47969 9.20092 5.37222 9.24159 5.28793 9.32294C5.20364 9.40428 5.16149 9.50489 5.16149 9.62477C5.16149 9.75321 5.20364 9.86239 5.28793 9.95229C5.37222 10.0379 5.47969 10.0807 5.61034 10.0807ZM5.61034 12.0009H7.96207C8.08851 12.0009 8.19387 11.9602 8.27816 11.8789C8.36245 11.7933 8.4046 11.6905 8.4046 11.5706C8.4046 11.4422 8.36245 11.3352 8.27816 11.2495C8.19387 11.1596 8.08851 11.1147 7.96207 11.1147H5.61034C5.47969 11.1147 5.37222 11.1596 5.28793 11.2495C5.20364 11.3352 5.16149 11.4422 5.16149 11.5706C5.16149 11.6905 5.20364 11.7933 5.28793 11.8789C5.37222 11.9602 5.47969 12.0009 5.61034 12.0009ZM2.5 12.8294V3.17706C2.5 2.47064 2.67912 1.93119 3.03736 1.55872C3.39981 1.18624 3.92874 1 4.62414 1H11.3759C12.067 1 12.5939 1.18624 12.9563 1.55872C13.3188 1.93119 13.5 2.47064 13.5 3.17706V12.8294C13.5 13.5401 13.3188 14.0795 12.9563 14.4477C12.5939 14.8159 12.067 15 11.3759 15H4.62414C3.92874 15 3.39981 14.8159 3.03736 14.4477C2.67912 14.0795 2.5 13.5401 2.5 12.8294Z" fill="white"/>
</svg>
