<svg width="16" height="16" viewBox="0 0 16 16" fill="none" xmlns="http://www.w3.org/2000/svg">
<g clip-path="url(#clip0_268_2420)">
<path d="M7.88867 9.43945C8.20898 9.43945 8.48242 9.32617 8.70898 9.09961C8.93555 8.86914 9.04883 8.59375 9.04883 8.27344C9.04883 7.95703 8.93555 7.68359 8.70898 7.45312C8.48242 7.22266 8.20898 7.10742 7.88867 7.10742C7.56836 7.10742 7.29297 7.22266 7.0625 7.45312C6.83594 7.68359 6.72266 7.95703 6.72266 8.27344C6.72266 8.59375 6.83594 8.86914 7.0625 9.09961C7.29297 9.32617 7.56836 9.43945 7.88867 9.43945ZM5.72656 12.7266H13.4609C13.6758 12.7266 13.8457 12.6641 13.9707 12.5391C14.0996 12.4141 14.1641 12.2422 14.1641 12.0234V11.3379L12.0898 9.41016C11.9844 9.3125 11.8691 9.24023 11.7441 9.19336C11.623 9.14258 11.5 9.11719 11.375 9.11719C11.2422 9.11719 11.1152 9.14062 10.9941 9.1875C10.877 9.23438 10.7617 9.30664 10.6484 9.4043L8.48633 11.3262L7.61328 10.541C7.51562 10.4512 7.41211 10.3848 7.30273 10.3418C7.19336 10.2949 7.08008 10.2715 6.96289 10.2715C6.85742 10.2715 6.75195 10.2949 6.64648 10.3418C6.54102 10.3848 6.43945 10.4492 6.3418 10.5352L5.02344 11.7246V12.0176C5.02344 12.2402 5.08594 12.4141 5.21094 12.5391C5.33594 12.6641 5.50781 12.7266 5.72656 12.7266ZM5.80859 13.8047C5.19922 13.8047 4.73828 13.6504 4.42578 13.3418C4.11328 13.0332 3.95703 12.5762 3.95703 11.9707V6.69141C3.95703 6.08984 4.11328 5.63281 4.42578 5.32031C4.73828 5.00781 5.19922 4.85156 5.80859 4.85156H13.3672C13.9727 4.85156 14.4336 5.00781 14.75 5.32031C15.0664 5.63281 15.2246 6.08984 15.2246 6.69141V11.9707C15.2246 12.5723 15.0664 13.0273 14.75 13.3359C14.4336 13.6484 13.9727 13.8047 13.3672 13.8047H5.80859ZM1.73633 10.4824L0.816406 5.27344C0.710938 4.68359 0.785156 4.20898 1.03906 3.84961C1.29688 3.48633 1.72461 3.25195 2.32227 3.14648L9.76953 1.83398C10.3672 1.72852 10.8457 1.80273 11.2051 2.05664C11.5684 2.30664 11.8047 2.72852 11.9141 3.32227L12.0371 4.02539H5.80859C5.25 4.02539 4.76953 4.13281 4.36719 4.34766C3.96875 4.55859 3.66211 4.86328 3.44727 5.26172C3.23242 5.65625 3.125 6.13281 3.125 6.69141V11.9355C3.125 11.9434 3.125 11.9531 3.125 11.9648C3.125 11.9727 3.125 11.9805 3.125 11.9883C2.35938 11.8984 1.89648 11.3965 1.73633 10.4824Z" fill="white"/>
</g>
<defs>
<clipPath id="clip0_268_2420">
<rect width="16" height="16" fill="white"/>
</clipPath>
</defs>
</svg>
