<svg width="24" height="24" viewBox="0 0 24 24" fill="none" xmlns="http://www.w3.org/2000/svg">
<g clip-path="url(#clip0_2458_6894)">
<g style="mix-blend-mode:plus-lighter">
<path d="M5.00001 1.41176C5.00001 0.746252 5.00001 0.413496 5.20503 0.206748C5.41006 -5.94035e-07 5.74004 -5.79611e-07 6.40001 -5.50763e-07L17.6 -6.11961e-08C18.26 -3.2348e-08 18.5899 -1.7924e-08 18.795 0.206748C19 0.413496 19 0.746252 19 1.41176C19 2.07728 19 2.41003 18.795 2.61678C18.5899 2.82353 18.26 2.82353 17.6 2.82353L14.1 2.82353C13.77 2.82353 13.605 2.82353 13.5025 2.9269C13.4 3.03028 13.4 3.19666 13.4 3.52941L13.4 4.02531C13.4 4.42113 13.4 4.61904 13.493 4.78232C13.586 4.9456 13.7555 5.04532 14.0946 5.24476L18.3054 7.72172C18.6445 7.92116 18.814 8.02088 18.907 8.18416C19 8.34744 19 8.54535 19 8.94117L19 10.1701C19 10.716 19 10.9889 18.8243 11.0907C18.6486 11.1924 18.4149 11.0549 17.9473 10.7799L12.7054 7.69642C12.3613 7.49399 12.1892 7.39278 12 7.39278C11.8108 7.39278 11.6387 7.49399 11.2946 7.69642L6.05271 10.7799C5.58514 11.0549 5.35136 11.1924 5.17568 11.0907C5 10.9889 5 10.716 5 10.1701L5 8.94118C5 8.54536 5 8.34745 5.093 8.18417C5.186 8.02089 5.35553 7.92117 5.69458 7.72173L9.90543 5.24476C10.2445 5.04532 10.414 4.9456 10.507 4.78232C10.6 4.61904 10.6 4.42113 10.6 4.02531L10.6 3.52941C10.6 3.19666 10.6 3.03028 10.4975 2.9269C10.395 2.82353 10.23 2.82353 9.90001 2.82353L6.40001 2.82353C5.74004 2.82353 5.41006 2.82353 5.20503 2.61678C5.00001 2.41003 5.00001 2.07728 5.00001 1.41176Z" fill="white"/>
<path fill-rule="evenodd" clip-rule="evenodd" d="M6.40001 15.5294C5.74004 15.5294 5.41006 15.5294 5.20503 15.3227C5.00001 15.1159 5.00001 14.7832 5.00001 14.1176C5.00001 13.4521 5.00001 13.1194 5.20503 12.9126C5.41006 12.7059 5.74004 12.7059 6.40001 12.7059L16.2 12.7059C17.5199 12.7059 18.1799 12.7059 18.59 13.1194C19 13.5329 19 14.1984 19 15.5294L19 18.2723C18.9998 18.9542 18.9972 19.5464 18.9572 20.04C18.912 20.5982 18.8121 21.1533 18.5422 21.6875C18.1396 22.4844 17.497 23.1323 16.7068 23.5384C16.177 23.8106 15.6265 23.9112 15.073 23.9568C14.5486 24 13.912 24 13.174 24L12.926 24C12.188 24 11.5514 24 11.027 23.9568C10.4735 23.9112 9.92298 23.8106 9.39324 23.5384C8.60296 23.1323 7.96045 22.4844 7.55778 21.6875C7.28787 21.1533 7.18802 20.5982 7.1428 20.04C7.09996 19.5112 7.09998 18.8692 7.10001 18.125L7.10001 16.2353C7.10001 15.9025 7.10001 15.7362 6.99749 15.6328C6.89498 15.5294 6.72999 15.5294 6.40001 15.5294ZM16.1665 19.8101C16.1989 19.4101 16.2 18.8845 16.2 18.0706L16.2 16.2353C16.2 15.9025 16.2 15.7362 16.0975 15.6328C15.995 15.5294 15.83 15.5294 15.5 15.5294L10.6 15.5294C10.27 15.5294 10.105 15.5294 10.0025 15.6328C9.90001 15.7362 9.90001 15.9025 9.90001 16.2353L9.90001 18.0706C9.90001 18.8845 9.90109 19.4101 9.9335 19.8101C9.96458 20.1936 10.0173 20.3358 10.0526 20.4056C10.1868 20.6713 10.401 20.8872 10.6644 21.0226C10.7336 21.0582 10.8746 21.1114 11.255 21.1427C11.6516 21.1754 12.1728 21.1765 12.98 21.1765L13.12 21.1765C13.9272 21.1765 14.4484 21.1754 14.845 21.1427C15.2254 21.1114 15.3664 21.0582 15.4356 21.0226C15.699 20.8872 15.9132 20.6713 16.0474 20.4056C16.0827 20.3358 16.1354 20.1936 16.1665 19.8101Z" fill="white"/>
</g>
</g>
<defs>
<clipPath id="clip0_2458_6894">
<rect width="24" height="24" fill="white"/>
</clipPath>
</defs>
</svg>
